<?xml version="1.0" encoding="UTF-8" standalone="no"?>
<!-- Created with Inkscape (http://www.inkscape.org/) -->

<svg
   width="128mm"
   height="128mm"
   viewBox="0 0 128 128"
   version="1.1"
   id="svg1"
   xml:space="preserve"
   inkscape:version="1.4.2 (ebf0e940, 2025-05-08)"
   sodipodi:docname="logo.svg"
   xmlns:inkscape="http://www.inkscape.org/namespaces/inkscape"
   xmlns:sodipodi="http://sodipodi.sourceforge.net/DTD/sodipodi-0.dtd"
   xmlns:xlink="http://www.w3.org/1999/xlink"
   xmlns="http://www.w3.org/2000/svg"
   xmlns:svg="http://www.w3.org/2000/svg"><sodipodi:namedview
     id="namedview1"
     pagecolor="#505050"
     bordercolor="#eeeeee"
     borderopacity="1"
     inkscape:showpageshadow="0"
     inkscape:pageopacity="0"
     inkscape:pagecheckerboard="false"
     inkscape:deskcolor="#505050"
     inkscape:document-units="mm"
     labelstyle="default"
     inkscape:clip-to-page="false"
     inkscape:zoom="1.5673117"
     inkscape:cx="265.10362"
     inkscape:cy="291.58208"
     inkscape:window-width="1728"
     inkscape:window-height="1387"
     inkscape:window-x="1714"
     inkscape:window-y="25"
     inkscape:window-maximized="0"
     inkscape:current-layer="layer1" /><defs
     id="defs1"><linearGradient
       id="swatch2"
       inkscape:swatch="solid"><stop
         style="stop-color:#000000;stop-opacity:1;"
         offset="0"
         id="stop2" /></linearGradient><linearGradient
       id="swatch1"
       inkscape:swatch="solid"><stop
         style="stop-color:#ffffff;stop-opacity:1;"
         offset="0"
         id="stop1" /></linearGradient><linearGradient
       inkscape:collect="always"
       xlink:href="#swatch1"
       id="linearGradient1"
       x1="1.25"
       y1="12"
       x2="22.75"
       y2="12"
       gradientUnits="userSpaceOnUse" /><linearGradient
       inkscape:collect="always"
       xlink:href="#swatch2"
       id="linearGradient2"
       x1="-113.31994"
       y1="63.339451"
       x2="-16.392185"
       y2="63.339451"
       gradientUnits="userSpaceOnUse" /></defs><g
     inkscape:label="Layer 1"
     inkscape:groupmode="layer"
     id="layer1"><circle
       style="fill:#3bd1ff;stroke-width:0.264583;stroke:url(#linearGradient2);fill-opacity:1"
       id="path2"
       cx="-64.856064"
       cy="63.339451"
       r="48.463879"
       transform="rotate(-90.997885)" /><path
       d="M 12,22 C 17.5228,22 22,17.5228 22,12 22,6.47715 17.5228,2 12,2 6.47715,2 2,6.47715 2,12 c 0,1.5997 0.37562,3.1116 1.04346,4.4525 0.17748,0.3563 0.23655,0.7636 0.13366,1.1481 l -0.59561,2.2261 c -0.25856,0.9663 0.6255,1.8503 1.59184,1.5918 L 6.39939,20.8229 C 6.78393,20.72 7.19121,20.7791 7.54753,20.9565 8.88837,21.6244 10.4003,22 12,22 Z"
       stroke="#1c274c"
       stroke-width="1.5"
       id="path1"
       style="fill:none;stroke:url(#linearGradient1)"
       transform="matrix(5.8990643,0,0,5.8990643,-6.7398911,-6.4950197)" /><path
       d="M 31.943,15.016 C 31.438,6.672 24.536,0.063 16.083,0.011 H 15.896 C 12.907,0.031 10.115,0.86 7.729,2.307 5.526,3.636 3.672,5.484 2.328,7.683 1.016,9.839 0.197,12.334 0.031,15.006 0.011,15.334 0,15.662 0,16.001 c 0,0.333 0.016,0.667 0.031,0.995 0.167,2.672 0.98,5.161 2.297,7.317 1.333,2.199 3.183,4.043 5.369,5.381 2.396,1.432 5.193,2.271 8.172,2.291 h 0.24 c 8.459,-0.057 15.328,-6.651 15.855,-14.984 0.015,-0.323 0.041,-0.661 0.041,-0.979 0,-0.324 0,-0.661 -0.027,-0.98 l -0.031,-0.031 z m -15.938,5.839 v 5.104 c 0.125,3.12 -0.76,3.64 -1.828,3.687 -0.047,0 -0.089,0.005 -0.136,0.005 C 7.969,28.792 3.166,23.979 2.328,17.891 2.245,17.271 2.197,16.64 2.197,15.995 c 0,-0.64 0.048,-1.271 0.131,-1.891 C 3.161,8.027 7.953,3.213 14.027,2.344 l 0.151,0.016 c 1.068,0.056 1.953,0.572 1.828,3.681 v 5.104 c -0.016,2.1 1.192,4.1 2.473,4.855 -1.281,0.749 -2.489,2.5 -2.473,4.849 z"
       id="path1-0"
       style="fill:#000000"
       transform="matrix(3.2647094,0,0,3.2647094,12.155951,11.851553)" /></g></svg>
